<svg xmlns="http://www.w3.org/2000/svg" viewBox="0 0 1144 545" width="1144" height="545">
  <path d="M 243.0,536.5 L 144.0,534.5 L 142.5,532.0 L 147.5,527.0 L 151.5,516.0 L 149.0,513.5 L 137.0,513.5 L 132.0,517.5 L 123.5,513.0 L 127.0,508.5 L 142.0,503.5 L 148.5,496.0 L 147.5,484.0 L 137.5,473.0 L 166.0,457.5 L 179.5,444.0 L 183.5,438.0 L 186.5,428.0 L 186.5,416.0 L 183.5,413.0 L 185.0,411.5 L 210.0,420.5 L 237.0,427.5 L 254.0,427.5 L 274.0,422.5 L 295.0,428.5 L 298.0,431.5 L 301.0,430.5 L 324.0,433.5 L 341.0,426.5 L 374.0,402.5 L 395.5,379.0 L 415.5,350.0 L 429.5,313.0 L 425.5,292.0 L 419.5,278.0 L 412.0,270.5 L 405.0,267.5 L 401.5,261.0 L 394.0,253.5 L 382.0,249.5 L 377.0,249.5 L 374.0,251.5 L 372.5,250.0 L 404.5,219.0 L 417.5,203.0 L 415.0,200.5 L 400.0,201.5 L 384.0,207.5 L 372.0,215.5 L 362.0,215.5 L 347.0,219.5 L 334.0,227.5 L 324.0,239.5 L 315.0,233.5 L 303.0,230.5 L 289.0,230.5 L 277.0,233.5 L 262.0,242.5 L 247.5,257.0 L 245.0,263.5 L 243.5,259.0 L 238.0,254.5 L 214.0,251.5 L 203.0,252.5 L 176.0,268.5 L 165.0,277.5 L 151.0,293.5 L 149.5,292.0 L 151.5,287.0 L 150.5,283.0 L 140.0,271.5 L 127.0,266.5 L 110.0,265.5 L 88.0,270.5 L 70.0,277.5 L 47.0,290.5 L 35.0,302.5 L 32.0,303.5 L 30.5,302.0 L 42.5,290.0 L 53.5,270.0 L 55.5,260.0 L 54.5,255.0 L 45.0,247.5 L 32.0,247.5 L 15.0,254.5 L 10.0,254.5 L 8.5,252.0 L 53.0,216.5 L 73.0,204.5 L 86.0,193.5 L 109.0,178.5 L 146.0,160.5 L 211.0,138.5 L 261.0,130.5 L 327.0,126.5 L 343.0,131.5 L 374.0,137.5 L 403.0,137.5 L 434.0,132.5 L 437.5,129.0 L 432.0,117.5 L 422.0,120.5 L 412.5,114.0 L 412.5,111.0 L 418.0,105.5 L 430.0,106.5 L 432.5,104.0 L 432.5,100.0 L 425.5,92.0 L 422.5,83.0 L 423.5,77.0 L 428.5,69.0 L 435.0,64.5 L 438.0,64.5 L 444.5,75.0 L 444.5,82.0 L 448.0,85.5 L 452.5,76.0 L 458.0,71.5 L 461.0,71.5 L 465.0,75.5 L 470.0,71.5 L 473.0,72.5 L 483.0,83.5 L 485.5,81.0 L 488.5,71.0 L 494.0,66.5 L 498.0,66.5 L 505.5,75.0 L 506.5,87.0 L 496.5,101.0 L 496.5,105.0 L 499.0,107.5 L 504.0,105.5 L 513.0,106.5 L 517.5,113.0 L 513.0,118.5 L 508.0,120.5 L 496.0,118.5 L 489.5,128.0 L 492.0,132.5 L 526.0,139.5 L 549.0,139.5 L 566.0,137.5 L 613.0,124.5 L 630.0,122.5 L 681.0,122.5 L 683.0,120.5 L 703.0,121.5 L 712.0,124.5 L 720.0,124.5 L 757.0,131.5 L 794.0,143.5 L 832.0,161.5 L 877.0,191.5 L 914.0,222.5 L 942.0,239.5 L 946.5,246.0 L 945.5,270.0 L 942.0,274.5 L 934.0,277.5 L 899.0,277.5 L 889.0,281.5 L 875.0,270.5 L 851.0,258.5 L 834.0,253.5 L 812.0,251.5 L 801.0,252.5 L 786.0,259.5 L 777.5,269.0 L 779.5,275.0 L 778.0,277.5 L 765.0,262.5 L 750.0,250.5 L 736.0,241.5 L 721.0,235.5 L 694.0,235.5 L 686.0,239.5 L 680.5,245.0 L 679.0,249.5 L 673.0,240.5 L 656.0,228.5 L 642.0,224.5 L 630.0,224.5 L 614.0,228.5 L 607.0,232.5 L 602.0,238.5 L 600.5,234.0 L 594.0,226.5 L 577.0,217.5 L 555.0,215.5 L 543.0,208.5 L 527.0,203.5 L 514.0,202.5 L 504.0,204.5 L 499.5,208.0 L 529.5,238.0 L 544.5,259.0 L 543.0,260.5 L 537.0,257.5 L 531.0,257.5 L 525.0,259.5 L 518.0,264.5 L 511.0,273.5 L 508.0,273.5 L 500.0,278.5 L 492.5,286.0 L 479.5,305.0 L 471.5,313.0 L 470.5,320.0 L 464.5,326.0 L 461.5,335.0 L 447.5,361.0 L 435.5,374.0 L 434.5,378.0 L 396.0,415.5 L 392.0,416.5 L 374.0,431.5 L 365.0,434.5 L 354.0,443.5 L 346.0,445.5 L 338.0,450.5 L 326.5,463.0 L 315.5,481.0 L 303.5,497.0 L 291.5,509.0 L 282.0,523.5 L 275.0,525.5 L 264.0,532.5 L 243.0,536.5 Z" fill="none" stroke="#000" stroke-width="3" stroke-linejoin="round"/>
</svg>
