<svg xmlns="http://www.w3.org/2000/svg" viewBox="0 0 1448 1086" width="1448" height="1086">
  <path d="M 989.0,1039.5 L 981.0,1038.5 L 973.0,1033.5 L 971.5,1032.0 L 972.5,1028.0 L 967.5,1023.0 L 969.0,1020.5 L 975.0,1021.5 L 980.5,1018.0 L 981.5,1014.0 L 974.5,1008.0 L 974.5,1006.0 L 985.5,1000.0 L 982.0,995.5 L 949.0,1017.5 L 922.0,1017.5 L 908.5,1005.0 L 905.5,997.0 L 899.5,990.0 L 897.5,983.0 L 900.0,981.5 L 910.0,984.5 L 915.5,977.0 L 915.5,972.0 L 913.0,969.5 L 908.0,969.5 L 900.5,965.0 L 909.5,955.0 L 875.0,937.5 L 855.0,919.5 L 842.0,915.5 L 838.5,919.0 L 830.5,935.0 L 821.5,946.0 L 809.0,958.5 L 796.0,967.5 L 774.0,977.5 L 731.0,981.5 L 709.0,1002.5 L 677.0,1014.5 L 664.0,1012.5 L 659.5,1008.0 L 661.5,1003.0 L 654.5,997.0 L 661.0,994.5 L 669.5,985.0 L 669.5,983.0 L 663.5,977.0 L 682.5,958.0 L 680.0,954.5 L 667.0,954.5 L 643.0,970.5 L 631.0,975.5 L 608.0,977.5 L 590.0,973.5 L 580.0,965.5 L 549.0,976.5 L 547.5,975.0 L 549.5,973.0 L 548.5,971.0 L 543.0,966.5 L 521.0,960.5 L 511.0,961.5 L 509.0,959.5 L 495.0,961.5 L 488.0,960.5 L 433.0,971.5 L 381.0,977.5 L 295.0,978.5 L 293.0,976.5 L 274.0,974.5 L 256.0,982.5 L 145.0,1018.5 L 140.0,1018.5 L 135.0,1013.5 L 129.0,1011.5 L 111.0,1007.5 L 84.0,1004.5 L 72.0,1005.5 L 70.5,1004.0 L 77.5,997.0 L 79.5,984.0 L 77.5,978.0 L 71.0,970.5 L 55.5,963.0 L 61.5,958.0 L 64.5,951.0 L 63.5,939.0 L 50.5,918.0 L 46.0,913.5 L 35.5,908.0 L 51.0,904.5 L 59.5,896.0 L 63.5,886.0 L 63.5,864.0 L 60.5,857.0 L 53.5,852.0 L 55.0,850.5 L 78.0,858.5 L 81.0,858.5 L 83.5,856.0 L 84.5,842.0 L 82.5,835.0 L 78.5,831.0 L 80.0,829.5 L 88.0,830.5 L 93.0,828.5 L 102.5,817.0 L 108.5,798.0 L 108.5,787.0 L 104.5,780.0 L 106.0,778.5 L 113.0,784.5 L 126.0,791.5 L 166.0,808.5 L 182.0,808.5 L 184.5,806.0 L 183.5,801.0 L 185.0,799.5 L 219.5,847.0 L 239.0,867.5 L 242.0,869.5 L 245.0,866.5 L 247.5,869.0 L 248.5,875.0 L 255.5,889.0 L 288.5,938.0 L 294.0,943.5 L 307.0,945.5 L 363.0,942.5 L 369.0,939.5 L 387.0,936.5 L 398.0,932.5 L 405.0,932.5 L 410.0,925.5 L 418.0,928.5 L 426.0,927.5 L 433.0,919.5 L 452.0,920.5 L 456.5,917.0 L 459.0,910.5 L 469.0,910.5 L 471.0,912.5 L 480.0,911.5 L 483.5,908.0 L 483.5,904.0 L 486.0,900.5 L 500.0,899.5 L 507.0,901.5 L 514.0,899.5 L 516.5,897.0 L 514.5,890.0 L 518.0,886.5 L 533.0,885.5 L 538.0,888.5 L 543.0,888.5 L 547.5,883.0 L 544.5,876.0 L 549.0,871.5 L 562.0,870.5 L 572.0,875.5 L 577.0,874.5 L 580.5,868.0 L 576.5,864.0 L 576.5,861.0 L 581.0,856.5 L 592.0,855.5 L 607.0,862.5 L 612.5,855.0 L 608.5,850.0 L 608.5,847.0 L 613.0,843.5 L 626.0,842.5 L 638.0,849.5 L 642.0,849.5 L 646.5,844.0 L 642.5,838.0 L 642.5,834.0 L 647.0,830.5 L 658.0,830.5 L 675.0,837.5 L 679.5,831.0 L 675.5,825.0 L 679.0,820.5 L 692.0,820.5 L 705.0,826.5 L 709.5,822.0 L 708.5,814.0 L 711.0,811.5 L 725.0,812.5 L 734.0,818.5 L 737.0,818.5 L 739.5,816.0 L 735.5,810.0 L 738.0,806.5 L 747.0,805.5 L 756.0,809.5 L 759.5,806.0 L 756.5,800.0 L 756.5,796.0 L 759.5,793.0 L 757.0,790.5 L 733.0,779.5 L 709.0,773.5 L 669.0,772.5 L 640.0,777.5 L 632.0,783.5 L 629.5,782.0 L 635.5,773.0 L 639.5,752.0 L 639.5,723.0 L 633.5,693.0 L 623.5,671.0 L 611.5,653.0 L 595.0,634.5 L 576.0,619.5 L 538.0,599.5 L 496.0,586.5 L 461.0,579.5 L 446.0,579.5 L 427.0,585.5 L 424.5,584.0 L 449.0,571.5 L 457.5,563.0 L 464.5,550.0 L 468.5,538.0 L 469.5,513.0 L 463.5,489.0 L 455.5,474.0 L 446.5,462.0 L 427.0,443.5 L 411.0,433.5 L 384.0,422.5 L 360.0,426.5 L 357.0,428.5 L 353.5,427.0 L 367.0,419.5 L 386.0,412.5 L 405.5,390.0 L 410.5,380.0 L 413.5,367.0 L 412.5,350.0 L 409.5,340.0 L 393.5,315.0 L 377.0,299.5 L 353.0,282.5 L 312.0,264.5 L 295.0,263.5 L 279.0,266.5 L 274.5,265.0 L 277.0,262.5 L 312.0,252.5 L 324.0,243.5 L 340.5,224.0 L 347.5,207.0 L 351.5,185.0 L 349.5,157.0 L 342.5,132.0 L 321.5,89.0 L 308.5,70.0 L 290.0,49.5 L 272.0,35.5 L 266.0,33.5 L 256.0,30.5 L 246.0,30.5 L 232.0,34.5 L 230.5,33.0 L 232.0,31.5 L 244.0,26.5 L 267.0,23.5 L 270.0,21.5 L 298.0,23.5 L 362.0,35.5 L 465.0,63.5 L 504.0,77.5 L 551.0,97.5 L 614.0,129.5 L 682.0,170.5 L 765.0,229.5 L 767.5,227.0 L 763.5,219.0 L 754.5,208.0 L 756.0,206.5 L 758.0,207.5 L 776.5,224.0 L 790.5,241.0 L 812.5,276.0 L 886.5,381.0 L 910.5,423.0 L 943.5,491.0 L 946.0,493.5 L 948.5,491.0 L 948.5,482.0 L 946.5,478.0 L 948.0,474.5 L 956.5,490.0 L 958.5,496.0 L 958.5,511.0 L 956.5,517.0 L 951.0,524.5 L 944.0,527.5 L 938.5,533.0 L 922.5,567.0 L 909.5,608.0 L 907.5,635.0 L 912.5,657.0 L 924.5,684.0 L 942.5,712.0 L 959.5,732.0 L 973.0,744.5 L 977.0,743.5 L 984.0,747.5 L 990.5,754.0 L 992.5,761.0 L 1005.0,769.5 L 1008.0,769.5 L 1011.5,765.0 L 1014.5,743.0 L 1017.0,740.5 L 1021.0,740.5 L 1034.0,747.5 L 1039.5,753.0 L 1052.5,772.0 L 1053.5,776.0 L 1057.0,778.5 L 1062.5,770.0 L 1063.5,754.0 L 1071.0,752.5 L 1075.0,754.5 L 1077.5,752.0 L 1064.5,737.0 L 1059.5,727.0 L 1058.5,719.0 L 1064.0,714.5 L 1083.0,717.5 L 1108.0,727.5 L 1124.0,737.5 L 1130.0,733.5 L 1145.0,736.5 L 1164.0,743.5 L 1191.0,757.5 L 1225.0,782.5 L 1233.0,781.5 L 1235.0,783.5 L 1247.0,786.5 L 1256.0,785.5 L 1270.0,793.5 L 1275.0,790.5 L 1281.0,797.5 L 1290.0,801.5 L 1296.0,799.5 L 1302.0,808.5 L 1307.0,811.5 L 1313.0,808.5 L 1319.0,818.5 L 1327.0,818.5 L 1332.0,826.5 L 1341.0,830.5 L 1347.5,837.0 L 1351.5,854.0 L 1361.5,879.0 L 1362.5,889.0 L 1357.5,903.0 L 1353.0,907.5 L 1347.0,908.5 L 1341.0,914.5 L 1326.0,919.5 L 1302.0,919.5 L 1234.0,912.5 L 1223.0,909.5 L 1209.0,909.5 L 1191.0,905.5 L 1148.0,906.5 L 1120.0,913.5 L 1057.0,947.5 L 1054.5,950.0 L 1056.5,968.0 L 1054.5,989.0 L 1045.5,1010.0 L 1034.0,1022.5 L 1024.0,1029.5 L 1007.0,1035.5 L 997.0,1035.5 L 989.0,1039.5 Z" fill="#000" fill-rule="evenodd"/>
</svg>
